<?xml version="1.0" standalone="no"?>
<!DOCTYPE svg PUBLIC "-//W3C//DTD SVG 20010904//EN"
 "http://www.w3.org/TR/2001/REC-SVG-20010904/DTD/svg10.dtd">
<svg version="1.0" xmlns="http://www.w3.org/2000/svg"
 width="440.000000pt" height="385.000000pt" viewBox="0 0 440.000000 385.000000"
 preserveAspectRatio="xMidYMid meet">

<g transform="translate(0.000000,385.000000) scale(0.100000,-0.100000)"
fill="#000000" stroke="none">
<path d="M2143 3778 c-17 -6 -45 -25 -61 -42 -42 -44 -1999 -3436 -2007 -3478
-14 -74 36 -160 108 -187 20 -8 639 -11 2018 -11 1667 0 1995 2 2022 14 47 20
84 65 98 118 12 43 11 53 -7 95 -27 63 -1960 3411 -1988 3442 -26 29 -92 61
-126 60 -14 -1 -39 -6 -57 -11z m829 -1976 l767 -1327 -770 -3 c-423 -1 -1115
-1 -1539 0 l-770 3 767 1328 c422 730 770 1327 773 1327 3 0 350 -597 772
-1328z"/>
<path d="M2137 2547 c-53 -17 -106 -63 -128 -111 -26 -58 -25 -154 11 -636 40
-553 51 -590 181 -590 79 0 115 38 139 144 13 58 70 826 70 941 0 96 -12 144
-47 185 -51 61 -152 91 -226 67z"/>
<path d="M2115 1031 c-59 -26 -111 -89 -123 -148 -47 -217 220 -355 366 -188
43 48 52 74 52 141 0 153 -158 258 -295 195z"/>
</g>
</svg>
